<svg xmlns="http://www.w3.org/2000/svg" xmlns:xlink="http://www.w3.org/1999/xlink" preserveAspectRatio="xMidYMid meet" version="1.0" viewBox="119.6 233.9 2322.2 243.7" zoomAndPan="magnify" style="fill: rgb(255, 255, 255);" original_string_length="5485" width="738.3658865342503px" height="77.58883562203147px"><g id="__id19_sd2o9i989r"><path d="M2111 4020 c-253 -67 -538 -262 -707 -485 -65 -87 -150 -264 -181 -380 -23 -86 -27 -121 -27 -245 0 -110 4 -160 17 -210 90 -321 386 -570 809 -679 185 -48 303 -62 553 -68 362 -8 674 26 1032 112 l143 34 95 -64 c168 -114 343 -191 567 -250 521 -136 1149 -161 1833 -75 650 83 1293 249 2168 561 l249 89 147 -80 c386 -207 793 -372 1112 -450 236 -58 359 -74 554 -73 208 0 283 15 422 83 164 81 263 224 263 380 0 55 -37 138 -74 168 -84 65 -188 68 -288 7 -78 -47 -97 -70 -98 -117 0 -45 36 -78 86 -78 66 0 96 69 54 123 l-20 25 34 16 c112 53 239 -39 222 -161 -20 -147 -135 -251 -331 -300 -103 -25 -332 -23 -500 6 -256 43 -549 131 -828 247 -182 76 -569 266 -560 274 14 13 511 191 772 277 405 133 643 194 941 240 157 24 201 27 435 26 264 0 393 -12 553 -48 57 -13 88 -28 149 -72 232 -166 425 -366 553 -572 74 -120 167 -336 200 -468 12 -48 30 -57 30 -16 0 39 -84 283 -135 391 -96 204 -253 403 -453 574 -61 51 -108 94 -107 96 7 8 211 -75 330 -133 139 -68 257 -143 370 -235 80 -65 225 -214 225 -231 0 -6 -25 -48 -55 -93 -73 -110 -109 -190 -109 -246 -1 -38 2 -45 20 -48 16 -2 40 25 119 138 54 77 102 140 106 140 5 0 52 -61 105 -136 53 -74 102 -138 110 -141 23 -9 46 18 41 47 -13 62 -53 146 -113 235 -35 53 -64 101 -64 105 0 15 183 195 259 255 98 77 219 152 337 210 104 50 324 138 331 132 2 -2 -22 -25 -54 -51 -77 -63 -234 -217 -295 -289 -78 -94 -147 -202 -204 -321 -55 -116 -144 -365 -144 -405 0 -45 23 -14 45 60 99 341 278 614 562 858 230 198 262 214 503 245 464 61 924 9 1510 -169 283 -86 991 -334 1012 -354 9 -8 -285 -157 -470 -238 -375 -164 -744 -270 -1057 -304 -255 -27 -480 23 -592 131 -152 146 -115 360 62 360 33 0 95 -23 95 -36 0 -3 -7 -12 -15 -20 -65 -66 18 -154 104 -110 64 34 47 109 -37 164 -72 46 -115 62 -169 62 -144 -1 -244 -135 -213 -285 38 -185 188 -317 425 -377 126 -31 373 -31 560 1 420 71 906 252 1385 516 l121 66 292 -104 c776 -278 1420 -448 2013 -531 291 -41 472 -56 744 -63 798 -19 1442 123 1808 399 l53 40 122 -31 c171 -42 359 -77 517 -96 182 -22 582 -31 735 -16 440 43 764 179 978 411 138 149 197 289 205 488 10 257 -61 478 -226 697 -152 203 -460 410 -692 465 -114 27 -255 27 -342 0 -142 -44 -229 -175 -167 -254 16 -20 29 -26 58 -26 42 0 65 19 76 63 10 38 47 64 113 78 122 25 278 -5 434 -85 367 -187 601 -531 602 -886 0 -166 -38 -282 -133 -400 -171 -213 -439 -345 -832 -407 -162 -26 -653 -25 -854 1 -124 16 -483 80 -490 88 -2 2 19 32 46 68 60 79 111 183 141 287 32 111 32 313 0 426 -77 272 -288 495 -627 662 -267 131 -489 196 -841 245 -742 104 -1463 -22 -2123 -371 l-114 -61 -166 36 c-894 196 -1657 235 -2466 125 -345 -46 -792 -154 -1085 -262 -174 -64 -398 -169 -551 -258 -47 -27 -96 -45 -164 -59 -125 -28 -330 -95 -470 -155 -267 -114 -473 -251 -652 -434 l-83 -85 -57 64 c-242 267 -670 497 -1128 606 -88 21 -133 38 -225 89 -330 181 -651 299 -1080 398 -290 67 -483 98 -840 134 -218 22 -837 25 -1060 5 -364 -33 -741 -92 -1102 -173 l-138 -31 -167 85 c-516 261 -999 379 -1553 380 -629 0 -1178 -135 -1549 -383 -246 -165 -409 -385 -452 -611 -16 -84 -16 -248 0 -324 28 -128 106 -290 179 -367 14 -15 23 -30 20 -33 -8 -9 -232 -53 -373 -74 -213 -33 -409 -44 -649 -38 -536 13 -885 134 -1121 389 -122 132 -172 276 -162 472 18 355 247 676 612 859 122 61 206 82 325 82 89 0 112 -3 151 -23 38 -18 48 -29 58 -63 15 -49 57 -73 103 -57 78 28 59 161 -34 228 -96 70 -288 91 -447 50z m3404 -160 c373 -19 698 -90 1053 -231 153 -60 456 -210 445 -219 -4 -4 -39 -15 -78 -25 -112 -28 -465 -147 -655 -220 -96 -37 -342 -139 -547 -226 -728 -310 -1094 -453 -1458 -572 -231 -75 -542 -159 -563 -152 -25 9 -95 100 -140 185 -130 241 -115 549 38 784 253 388 830 637 1560 675 80 5 150 9 155 9 6 1 91 -3 190 -8z m15050 -11 c365 -32 681 -116 944 -249 179 -90 381 -262 477 -407 163 -244 178 -559 38 -809 -41 -74 -120 -174 -138 -174 -23 0 -381 99 -526 145 -344 111 -814 296 -1580 623 -441 188 -781 314 -1060 392 -63 17 -119 36 -124 41 -11 10 284 157 439 218 508 200 984 269 1530 220z m-11040 -263 c537 -54 1017 -162 1398 -312 169 -67 401 -176 412 -194 6 -10 3 -12 -11 -6 -37 14 -455 19 -584 7 -399 -39 -786 -139 -1464 -377 -149 -53 -337 -119 -418 -147 l-146 -52 -39 19 c-76 36 -337 195 -763 466 -239 152 -486 307 -549 345 -103 61 -112 69 -91 77 41 15 401 86 570 112 197 30 493 64 662 76 197 13 839 5 1023 -14z m7750 0 c334 -35 637 -81 919 -142 88 -19 161 -36 162 -37 2 -1 -79 -52 -179 -113 -100 -61 -328 -204 -507 -319 -330 -211 -592 -373 -710 -437 l-65 -36 -220 79 c-814 294 -1251 422 -1630 479 -168 25 -508 37 -670 22 -60 -5 -112 -8 -114 -6 -5 5 222 117 329 162 254 107 532 188 895 262 229 47 458 76 820 104 125 10 828 -4 970 -18z m-10047 -295 c72 -43 269 -173 439 -287 389 -264 665 -446 770 -509 45 -28 83 -53 83 -56 0 -9 -577 -208 -810 -280 -649 -199 -1218 -325 -1800 -396 -183 -22 -851 -26 -1020 -5 -363 44 -639 116 -844 219 -111 56 -230 133 -219 143 4 3 60 21 123 39 293 84 653 227 1440 571 623 272 735 319 1017 424 211 78 629 210 679 215 7 1 71 -35 142 -78z m11448 33 c445 -127 688 -222 1779 -699 378 -165 721 -305 917 -374 140 -49 368 -121 385 -121 35 0 16 -25 -54 -71 -251 -164 -624 -270 -1088 -309 -155 -13 -625 -13 -780 0 -681 57 -1575 269 -2468 584 -144 51 -269 95 -277 98 -10 3 7 18 49 44 35 21 249 163 475 314 226 151 464 310 529 353 129 86 357 227 367 227 4 0 78 -20 166 -46z" transform="matrix(.1 0 0 -.1 0 640)" style="fill: inherit;"/></g></svg>